PathFileType	4	(X/Y/Z)	D:\TRACE\v60_Jaco2_6-2-23\JustArmDRS_Motion2_2-v60.trc
DataRate	CameraRate	NumFrames	NumMarkers	Units	OrigDataRate	OrigDataStartFrame	OrigNumFrames
100.00	100.00	      38	9	mm	100.00	6130	      7005
Frame#	Time	front left toe			Front right toe			aft left toe			aft right toe			Arm			FL body			FR body			AL Body			AR Body			
		X1	Y1	Z1	X2	Y2	Z2	X3	Y3	Z3	X4	Y4	Z4	X5	Y5	Z5	X6	Y6	Z6	X7	Y7	Z7	X8	Y8	Z8	X9	Y9	Z9	

6130	61.290	-159.69225	39.65056	-150.21587	247.55128	38.29293	-195.43077	-92.34531	-21.02998	450.16275	309.68262	-20.28193	438.07867	176.30142	1091.99805	-659.03302	-34.26474	601.54041	-281.72321	125.09736	595.96509	-300.68790	76.93594	552.60431	656.67212	233.04750	541.65338	639.31055	
6131	61.300	-160.64857	39.77917	-150.16832	247.20198	38.29179	-195.19672	-93.95749	-20.38967	450.01685	309.09183	-20.32344	438.05719	176.54004	1092.29785	-658.67120	-34.65457	601.83832	-281.50125	124.47296	596.21350	-300.43906	76.27424	552.23413	655.90668	232.93539	541.69940	640.59009	
6132	61.310	-161.44989	39.97353	-150.11424	246.41304	38.18140	-195.09529	-94.63716	-20.40392	449.84445	308.03622	-20.52825	438.01874	176.68146	1092.51245	-658.27789	-34.89400	601.93518	-281.31256	124.25871	596.64075	-300.80453	75.88040	551.97388	656.06909	232.30920	541.10834	639.53491	
6133	61.320	-161.79030	39.79271	-150.18350	245.47945	38.01366	-195.05809	-95.63589	-20.27735	449.84781	307.46133	-20.43366	437.98547	176.69263	1092.68994	-657.89178	-35.39975	602.17572	-281.09802	123.88787	596.65521	-300.64633	75.30744	551.96759	656.50739	231.98579	540.93207	639.56482	
6134	61.330	-162.19547	39.74298	-150.12030	244.96045	37.99428	-195.18524	-95.94817	-20.50043	450.01538	306.99362	-20.23928	438.06763	176.59019	1092.92615	-657.55450	-35.64322	602.36560	-280.96143	123.10020	596.53766	-300.22174	74.80017	551.77637	656.64380	231.59630	540.81189	639.64026	
6135	61.340	-163.07884	39.83874	-150.20280	244.10300	37.99149	-195.20978	-96.60800	-20.33290	450.05927	306.05511	-20.10093	437.92719	176.44710	1092.94714	-657.45630	-36.01001	602.46930	-280.89441	123.15370	596.89264	-300.50854	74.31253	551.64697	656.76642	231.09230	540.56268	639.62054	
6136	61.350	-164.13216	39.83596	-150.24208	243.34053	37.91610	-195.25334	-97.59862	-20.11705	450.05472	305.30688	-20.14844	438.02280	176.22047	1093.08801	-657.13855	-36.49153	602.56006	-280.88354	122.58003	596.91022	-300.38303	73.93566	551.52667	656.82123	229.34895	539.78387	638.79279	
6137	61.360	-164.76253	39.64555	-150.42172	242.84244	37.82371	-195.33432	-98.43495	-19.85948	450.22150	304.69077	-20.16953	438.03223	176.11447	1093.10706	-657.07416	-37.20630	602.62274	-280.86255	122.14078	596.91278	-300.44583	73.46896	551.29010	656.85101	228.77962	539.53210	638.84308	
6138	61.370	-165.39485	39.63290	-150.47029	241.98256	37.72585	-195.41037	-98.95601	-19.63548	450.25235	304.01053	-20.02277	438.04797	176.01402	1093.04932	-657.03619	-37.68413	602.70203	-280.68030	121.57476	596.96228	-300.40387	72.91436	550.99133	656.92139	228.13779	539.18774	638.89606	
6139	61.380	-166.24388	39.68199	-150.41621	241.19734	37.64584	-195.50645	-99.79769	-19.52635	450.16290	302.98654	-19.97350	437.96542	175.56711	1093.24548	-656.94751	-38.23135	602.91608	-280.79086	120.91245	597.05786	-300.43686	72.29801	550.74072	656.88391	227.76028	539.01154	638.91791	
6140	61.390	-167.14409	39.63154	-150.39206	240.33003	37.52895	-195.71701	-102.29543	-18.33483	449.83392	302.31427	-19.57560	437.83594	175.06459	1093.54968	-656.66730	-39.32227	603.20996	-281.03061	119.91898	597.04474	-300.06216	72.21066	550.67853	657.63727	227.30458	538.83826	638.89703	
6141	61.400	-167.66318	39.44545	-150.57733	239.76009	37.59322	-195.75896	-102.99146	-18.06311	449.84454	301.68622	-19.34670	437.82306	174.11694	1093.54602	-656.71875	-39.93512	603.27753	-281.09961	119.30212	597.11224	-300.03049	71.64214	550.45801	657.52167	228.08484	539.65973	640.98602	
6142	61.410	-168.58150	39.12540	-150.82933	238.86424	37.37241	-195.87166	-103.64543	-18.06448	449.84119	300.61407	-19.32803	437.71472	173.48114	1094.00293	-656.48706	-40.58065	603.43182	-280.96271	118.65144	597.59583	-300.49060	71.02111	550.23248	657.22003	227.36839	539.14148	640.63190	
6143	61.420	-169.50992	39.01931	-150.99905	237.80527	37.15527	-196.04631	-104.20506	-17.96054	449.73672	299.81473	-19.04147	437.82935	172.83778	1094.35376	-656.28802	-41.01170	603.56018	-280.93884	118.16667	597.74481	-300.52069	69.77238	550.01355	656.61267	226.58220	538.96576	640.44434	
6144	61.430	-170.50789	39.13584	-151.08412	237.07150	37.03929	-195.92636	-105.09875	-17.55391	449.66449	299.10941	-18.61640	437.84659	172.34454	1094.69531	-656.28235	-41.74433	603.75098	-280.86844	117.45583	597.80225	-300.54993	69.19955	549.86005	656.12061	226.05034	538.91919	640.43500	
6145	61.440	-171.04890	38.94355	-151.07135	236.10168	36.70372	-196.09135	-106.02849	-17.16947	449.70929	297.90842	-18.49749	437.73691	171.14575	1095.30554	-655.99518	-43.04020	604.20978	-281.10645	116.53883	597.94531	-300.53766	68.52473	549.63135	655.99487	225.31293	538.57196	640.44952	
6146	61.450	-171.98495	38.63852	-151.21515	235.00935	36.50824	-196.24100	-106.38540	-17.07652	449.62637	297.35718	-18.12492	437.65280	170.77541	1095.58142	-655.96606	-43.80934	604.36670	-281.26108	114.96093	597.78253	-299.88806	67.91841	549.45117	655.97357	223.12299	537.18567	638.48706	
6147	61.460	-173.24519	38.57476	-151.41539	234.11143	36.23980	-196.36440	-107.66897	-16.51849	449.61707	296.46915	-17.76385	437.48862	169.91699	1095.87134	-655.88287	-44.61296	604.44330	-281.15417	114.51408	597.75366	-300.23288	66.63951	549.01489	655.44360	224.89201	537.90228	639.03546	
6148	61.470	-174.09505	38.38163	-151.71872	233.34918	35.98463	-196.66238	-108.52562	-16.19562	449.49237	295.34106	-17.52657	437.49384	168.95842	1096.16577	-655.79443	-45.15048	604.36646	-281.26468	113.53961	598.37189	-301.26385	66.45933	548.83398	655.83649	222.50795	537.45215	638.83289	
6149	61.480	-174.74333	38.07424	-151.71967	232.41585	35.96415	-196.69182	-109.23671	-16.03864	449.31091	294.31812	-17.02468	437.51245	167.74185	1096.36133	-655.78247	-46.37514	604.42377	-281.47461	112.92032	598.37189	-301.16452	65.60177	548.67358	655.67200	221.93732	537.28882	638.74139	
6150	61.490	-176.01817	37.90110	-151.82198	231.35120	35.62626	-196.94884	-110.55996	-15.41547	449.38278	293.33765	-16.80824	437.41772	166.97305	1096.22205	-655.81757	-47.44884	604.66406	-281.60675	111.74011	598.71155	-301.67703	64.36309	548.48883	655.70758	221.01582	536.98962	638.45172	
6151	61.500	-176.74910	37.77178	-152.09987	230.45192	35.37260	-197.20348	-111.19922	-15.17443	449.44150	292.44681	-16.32088	437.29221	165.72017	1096.67139	-655.57446	-48.35500	604.90369	-281.74274	110.27953	598.57782	-301.39865	63.40342	548.28119	655.51508	219.80025	536.92749	638.24133	
6152	61.510	-177.86630	37.61019	-152.44566	229.30664	35.20016	-197.43604	-112.17278	-14.71402	449.27927	291.92886	-15.81964	437.21939	164.50414	1096.67432	-655.96515	-49.17692	604.88892	-281.92810	109.42571	598.93207	-301.23846	62.34331	548.12671	655.36835	219.08974	536.88391	638.19543	
6153	61.520	-178.69083	37.31047	-152.42816	228.44217	35.10005	-197.61253	-113.41817	-14.10434	449.22910	290.42038	-15.62472	437.13126	163.38533	1097.18542	-655.77795	-50.48304	605.20868	-282.15012	108.62168	599.15723	-301.73474	61.72376	547.97839	655.24176	217.91759	536.67639	637.92297	
6154	61.530	-179.80258	37.05610	-152.75414	227.62198	34.86190	-197.71869	-114.21878	-13.67486	449.20953	289.61993	-15.14169	437.08725	162.06613	1097.62683	-655.73004	-51.67963	605.19806	-282.08423	107.69412	599.30847	-301.91165	60.65424	547.96130	655.17017	217.09583	536.81409	637.84143	
6155	61.540	-180.75455	37.20619	-152.96989	226.57748	34.59499	-197.97783	-115.16989	-13.40896	449.19949	288.78006	-14.60062	437.02975	161.04552	1097.88367	-655.91492	-52.38234	605.03473	-282.12112	105.95351	599.14966	-301.33255	59.55611	548.04401	655.01233	216.09663	536.86627	637.55731	
6156	61.550	-181.89270	36.63883	-153.15511	225.43475	34.32964	-198.19049	-116.21729	-12.85621	449.08246	287.50934	-14.00086	436.75519	159.23386	1098.16589	-655.84937	-53.69646	605.27338	-282.45175	105.70493	599.50043	-302.10196	58.62748	548.10626	654.80560	214.08463	536.59314	636.41351	
6157	61.560	-183.05035	36.43153	-153.33868	224.22308	34.03134	-198.43295	-117.31901	-12.27424	449.03519	286.84973	-13.45971	436.72714	158.30070	1098.31812	-655.84973	-55.13510	605.66815	-282.57550	104.14456	599.83789	-302.34052	57.17860	548.04462	654.61792	215.23505	537.08307	637.23816	
6158	61.570	-183.75336	36.41778	-153.53571	223.23492	33.91328	-198.69206	-118.47357	-11.77895	448.77908	285.30490	-13.12926	436.46649	156.39705	1098.70508	-656.42902	-55.97284	605.86023	-282.47037	103.15432	600.02454	-302.60931	56.44560	548.07697	654.56171	213.01723	537.25232	638.32117	
6159	61.580	-185.21803	36.08155	-153.76329	222.10594	33.56145	-198.96735	-119.26779	-11.26272	448.62253	284.51138	-12.55946	436.57175	155.38472	1098.71069	-656.46936	-57.48402	605.98547	-282.75983	101.50523	599.87280	-302.39349	55.31351	548.31598	654.32312	211.90755	537.40442	638.11041	
6160	61.590	-186.27490	35.76237	-153.88585	221.10960	33.33750	-199.14757	-120.53562	-10.59644	448.61102	283.57651	-11.81882	436.32816	153.60153	1098.90271	-656.52252	-58.21229	605.32587	-282.88715	100.49905	600.06525	-302.82773	54.05939	548.46576	654.03259	211.00375	537.84033	637.74823	
6161	61.600	-187.13374	35.59578	-154.14740	220.10109	32.93832	-199.37749	-121.39117	-10.06701	448.43307	282.33987	-11.28811	436.21881	152.26962	1099.09570	-656.87396	-59.97692	605.63635	-282.99765	99.20077	600.16107	-303.20377	53.16319	548.47644	653.88824	209.86430	538.00800	637.47302	
6162	61.610	-188.52107	35.25184	-154.52567	218.87364	32.84069	-199.53174	-122.63931	-9.31420	448.35846	281.58545	-10.71675	436.02164	150.85703	1099.30237	-657.17786	-61.32695	605.88806	-283.61426	97.84797	600.29199	-303.42618	51.92552	548.50677	653.73962	208.70081	537.99384	637.24377	
6163	61.620	-189.57545	34.97032	-154.69662	217.76852	32.47852	-199.91766	-123.80808	-8.77782	448.12167	280.21426	-10.25661	435.79132	149.11665	1099.08630	-657.62872	-62.46984	605.92688	-283.66174	96.19096	600.14471	-303.07092	50.67638	548.58148	652.68982	207.46765	537.97272	635.84564	
6164	61.630	-190.47598	34.87066	-154.87399	216.87808	32.13884	-200.04315	-124.80820	-8.06336	448.00885	279.13522	-9.46626	435.70404	147.82433	1099.07239	-657.87592	-63.86494	605.88104	-283.95102	95.39626	600.50433	-303.90036	49.45567	548.97937	653.09979	206.23155	538.70227	636.49402	
6165	61.640	-191.70079	34.39364	-155.22372	215.42444	31.68736	-200.48996	-125.94047	-7.60070	447.75970	277.67130	-8.84710	435.59119	146.23485	1099.04639	-658.30646	-64.99188	605.72437	-284.21881	94.29762	600.46106	-304.04971	48.33335	549.15485	652.31433	203.99121	538.20703	634.27863	
6166	61.650	-192.95398	33.94036	-155.47369	214.48471	31.37962	-200.54726	-127.05492	-6.92746	447.64154	276.93134	-8.22108	435.44855	144.30302	1099.22388	-658.94910	-66.36768	605.64825	-284.32895	92.04305	600.32178	-304.59518	47.23971	549.40436	652.22723	203.58920	539.23376	635.94885	
6167	61.660	-193.76723	33.70769	-155.66830	213.15291	30.91878	-201.01135	-128.46016	-6.22098	447.42548	275.94443	-7.48987	435.32422	142.94760	1099.27734	-659.24719	-67.94042	605.58270	-284.90631	91.03716	600.23865	-304.59592	45.85583	549.64026	651.94153	202.02248	539.03229	634.65894	
